<?xml version="1.0" standalone="no"?>
<!DOCTYPE svg PUBLIC "-//W3C//DTD SVG 1.0//EN" "http://www.w3.org/TR/2001/REC-SVG-20010904/DTD/svg10.dtd">
<svg xmlns="http://www.w3.org/2000/svg" xmlns:xlink="http://www.w3.org/1999/xlink" id="body_1" width="512" height="512">

<g transform="matrix(1 0 0 1 0 0)">
    <path d="M259.92 262.91L216.4 149.77C 215.06311 146.29442 211.72383 144.0011 208 144.0011C 204.27617 144.0011 200.93689 146.29442 199.59999 149.77L199.59999 149.77L156.08 262.91C 155.16585 265.28723 153.28725 267.16583 150.91 268.08002L150.91 268.08002L37.77 311.6C 34.29443 312.93692 32.001114 316.27618 32.001114 320C 32.001114 323.72382 34.29443 327.06308 37.77 328.4L37.77 328.4L150.91 371.91998C 153.28725 372.83417 155.16585 374.71277 156.08 377.09L156.08 377.09L199.6 490.23C 200.93689 493.70557 204.27617 495.9989 208 495.9989C 211.72383 495.9989 215.06311 493.70557 216.40001 490.23L216.40001 490.23L259.92 377.09003C 260.83417 374.71277 262.71277 372.83417 265.09003 371.92L265.09003 371.92L378.23 328.4C 381.7056 327.06308 383.9989 323.72382 383.9989 320C 383.9989 316.27618 381.7056 312.93692 378.23 311.6L378.23 311.6L265.09 268.08C 262.71277 267.16583 260.83417 265.28723 259.92 262.91z" stroke="#000000" stroke-width="32" stroke-linecap="square" fill="none" />
    <path d="M108 68L88 16L68 68L16 88L68 108L88 160L108 108L160 88L108 68L108 68" stroke="#000000" stroke-width="32" stroke-linecap="square" fill="none" />
    <path d="M426.67 117.33L400 48L373.33 117.33L304 144L373.33 170.67L400 240L426.67 170.67L496 144L426.67 117.33L426.67 117.33" stroke="#000000" stroke-width="32" stroke-linecap="square" fill="none" />
</g>
</svg>